<svg xmlns="http://www.w3.org/2000/svg" xmlns:xlink="http://www.w3.org/1999/xlink" width="129.52" height="137.459" viewBox="0 0 129.52 137.459">
  <defs>
    <filter id="XMLID_25_" x="23.227" y="10.266" width="83.114" height="83.09" filterUnits="userSpaceOnUse">
      <feOffset dx="2" dy="2" input="SourceAlpha"/>
      <feGaussianBlur stdDeviation="2.5" result="blur"/>
      <feFlood flood-opacity="0.149"/>
      <feComposite operator="in" in2="blur"/>
      <feComposite in="SourceGraphic"/>
    </filter>
    <filter id="XMLID_38_" x="0" y="0" width="129.52" height="137.459" filterUnits="userSpaceOnUse">
      <feOffset dx="2" dy="2" input="SourceAlpha"/>
      <feGaussianBlur stdDeviation="2.5" result="blur-2"/>
      <feFlood flood-opacity="0.149"/>
      <feComposite operator="in" in2="blur-2"/>
      <feComposite in="SourceGraphic"/>
    </filter>
  </defs>
  <g id="XMLID_3_" transform="translate(-10.8 5.5)">
    <g id="XMLID_18_" transform="translate(39.527 10.266)">
      <g id="XMLID_19_" transform="translate(0)">
        <g id="XMLID_20_">
          <g transform="matrix(1, 0, 0, 1, -28.73, -15.77)" filter="url(#XMLID_25_)">
            <path id="XMLID_25_2" data-name="XMLID_25_" d="M174.76,89.83a33.835,33.835,0,0,0,1.715-25.6c0-.049-.024-.074-.049-.123a34.356,34.356,0,0,0-16.539-19.332.98.98,0,0,0-.686-.343,33.856,33.856,0,0,0-25.31-1.936,1.165,1.165,0,0,0-.564.172,34.367,34.367,0,0,0-19.381,16.588,1.06,1.06,0,0,0-.441.907,33.841,33.841,0,0,0-1.666,25.506c0,.049.024.073.049.123a34.477,34.477,0,0,0,16.759,19.454,1.086,1.086,0,0,0,.686.343A33.986,33.986,0,0,0,174.564,90.2.674.674,0,0,0,174.76,89.83Zm-.515-4.631A15.615,15.615,0,0,0,160.034,73.83a15.813,15.813,0,0,0-3.847-9.286,13.515,13.515,0,0,1,18.2.515,31.291,31.291,0,0,1,1.568,9.85A32.371,32.371,0,0,1,174.245,85.2Zm-20.189-.907a1.347,1.347,0,0,0-.221.172.881.881,0,0,0-.172.245A13.61,13.61,0,0,1,134.5,65.377c.049-.025.1-.074.147-.1a1.347,1.347,0,0,0,.171-.221A13.6,13.6,0,0,1,157.8,74.933,13.749,13.749,0,0,1,154.056,84.292Zm18.719-23.178a15.916,15.916,0,0,0-18.18,1.862,15.7,15.7,0,0,0-9.237-3.871,13.58,13.58,0,0,1,13.329-12.4A32.06,32.06,0,0,1,172.775,61.114ZM154.742,44.992A15.779,15.779,0,0,0,143.079,59.1a15.836,15.836,0,0,0-9.213,3.773,13.57,13.57,0,0,1,.613-18.2,31.491,31.491,0,0,1,20.263.319ZM130.51,46.266a15.9,15.9,0,0,0,1.715,18.254,15.7,15.7,0,0,0-3.871,9.237,13.668,13.668,0,0,1-12.52-13.108A31.86,31.86,0,0,1,130.51,46.266Zm-16.367,18.3a15.938,15.938,0,0,0,14.186,11.467,15.749,15.749,0,0,0,3.847,9.286,13.515,13.515,0,0,1-18.2-.515,31.291,31.291,0,0,1-1.568-9.85A31.654,31.654,0,0,1,114.143,64.568Zm1.446,24.208a15.708,15.708,0,0,0,18.156-1.862,15.7,15.7,0,0,0,9.237,3.871,13.548,13.548,0,0,1-13.084,12.52A32.084,32.084,0,0,1,115.588,88.776Zm18.254,16.2A15.832,15.832,0,0,0,145.26,90.785a15.916,15.916,0,0,0,9.335-3.871,13.706,13.706,0,0,1-.588,18.229,31.581,31.581,0,0,1-20.165-.172Zm24.11-1.421a15.666,15.666,0,0,0,2.107-7.84,15.9,15.9,0,0,0-3.871-10.389,15.661,15.661,0,0,0,3.822-9.188,13.362,13.362,0,0,1,12.52,13.084A31.891,31.891,0,0,1,157.951,103.55Z" transform="translate(-81.37 -25.13)" fill="#8199b1"/>
          </g>
          <path id="XMLID_22_" d="M217.717,138.1a10.217,10.217,0,1,0,10.217,10.217A10.164,10.164,0,0,0,217.717,138.1Zm0,18.156a7.938,7.938,0,1,1,7.939-7.938A7.89,7.89,0,0,1,217.717,156.256Z" transform="translate(-183.635 -114.285)" fill="#8199b1"/>
          <path id="XMLID_1_" d="M230.533,156.7A4.538,4.538,0,0,0,226,161.233a1.067,1.067,0,0,0,1.127,1.127,1.081,1.081,0,0,0,1.127-1.127,2.29,2.29,0,0,1,2.279-2.279,1.127,1.127,0,0,0,0-2.254Z" transform="translate(-197.603 -128.327)" fill="#8199b1"/>
        </g>
      </g>
    </g>
    <g id="XMLID_4_" transform="translate(16.3)">
      <path id="XMLID_39_" d="M133.838,107q3.271-11.54,7.6-23.056L172.624,0H96.4l30.039,83.918Q130.849,96.23,133.838,107Z" transform="translate(-76.774)" fill="none"/>
      <g transform="matrix(1, 0, 0, 1, -5.5, -5.5)" filter="url(#XMLID_38_)">
        <path id="XMLID_38_2" data-name="XMLID_38_" d="M80.96,83.918q-4.337,11.54-7.6,23.056-2.977-10.768-7.4-23.056L35.926,0H16.3L63.759,122.459H82.871L130.82,0H112.15Z" transform="translate(-10.8 5.5)" fill="#8199b1"/>
      </g>
    </g>
  </g>
</svg>
