<svg xmlns="http://www.w3.org/2000/svg" width="38.266" height="38.267" viewBox="0 0 38.266 38.267">
  <g id="moon" transform="translate(-0.004)">
    <path id="Path_8" data-name="Path 8" d="M19.137,0A19.133,19.133,0,1,1,0,19.133,19.133,19.133,0,0,1,19.137,0Z" fill="#3e4954"/>
    <path id="Path_10" data-name="Path 10" d="M21.529,64.086A19.127,19.127,0,0,1,6.861,32.676,19.128,19.128,0,1,0,33.8,59.622,19.047,19.047,0,0,1,21.529,64.086Z" transform="translate(0 -28.211)" fill="#445260"/>
    <g id="Group_3" data-name="Group 3" transform="translate(7.155 3.588)">
      <path id="Path_11" data-name="Path 11" d="M186.954,32.5a19.211,19.211,0,0,0-5.532-6.2L181,26.252a5.979,5.979,0,1,0,5.953,6.246Z" transform="translate(-158.257 -26.252)" fill="#445260"/>
      <circle id="Ellipse_2" data-name="Ellipse 2" cx="3.589" cy="3.589" r="3.589" transform="translate(14.366 17.93)" fill="#445260"/>
      <path id="Path_12" data-name="Path 12" d="M58.382,61.434a4.785,4.785,0,1,0,3.4,5.859A4.8,4.8,0,0,0,58.382,61.434Z" transform="translate(-52.336 -56.485)" fill="#445260"/>
      <circle id="Ellipse_3" data-name="Ellipse 3" cx="2.392" cy="2.392" r="2.392" transform="translate(3.608 21.533)" fill="#445260"/>
    </g>
  </g>
</svg>
