<svg id="sun" xmlns="http://www.w3.org/2000/svg" width="38.267" height="38.267" viewBox="0 0 38.267 38.267">
  <g id="Group_6" data-name="Group 6">
    <path id="Path_14" data-name="Path 14" d="M19.133,0A19.133,19.133,0,1,1,0,19.133,19.133,19.133,0,0,1,19.133,0Z" fill="#8199b1"/>
    <g id="Group_5" data-name="Group 5" transform="translate(5.218 5.218)">
      <g id="Group_4" data-name="Group 4">
        <circle id="Ellipse_5" data-name="Ellipse 5" cx="9.212" cy="9.212" r="9.212" transform="translate(4.704 4.703)" fill="#fff"/>
        <path id="Path_13" data-name="Path 13" d="M46.312,32.4c0-.961-2.308-1.595-2.464-2.356s1.723-2.229,1.371-3.061-2.709-.5-3.129-1.119.776-2.675.147-3.3-2.682.567-3.3.147-.287-2.777-1.119-3.129-2.3,1.526-3.061,1.371-1.4-2.464-2.356-2.464S30.8,20.79,30.04,20.946s-2.228-1.722-3.061-1.371-.5,2.709-1.119,3.129-2.675-.776-3.3-.147.567,2.683.147,3.3-2.777.286-3.129,1.119,1.526,2.3,1.371,3.061-2.464,1.395-2.464,2.356,2.308,1.594,2.464,2.356-1.723,2.228-1.371,3.061,2.709.5,3.129,1.119-.776,2.675-.147,3.3,2.682-.567,3.3-.147.287,2.777,1.119,3.129,2.3-1.526,3.061-1.371,1.4,2.464,2.356,2.464S33.991,44,34.752,43.848s2.228,1.723,3.061,1.371.5-2.709,1.119-3.129,2.675.777,3.3.147-.567-2.682-.147-3.3,2.777-.286,3.129-1.119-1.526-2.3-1.371-3.061S46.312,33.358,46.312,32.4ZM32.4,42.842A10.445,10.445,0,1,1,42.842,32.4,10.446,10.446,0,0,1,32.4,42.842Z" transform="translate(-18.481 -18.482)" fill="#fff"/>
      </g>
    </g>
  </g>
</svg>
